<mxfile modified="2024-05-15T14:08:47.237Z" host="app.diagrams.net" agent="Mozilla/5.0 (Windows NT 10.0; Win64; x64) AppleWebKit/537.36 (KHTML, like Gecko) Chrome/124.0.0.0 Safari/537.36" etag="JjTqFaGYSMhrbcNC1N22" version="24.4.0" type="device">
  <diagram id="l2aKFoh6-Bn0gOPZ2l0T" name="Page-1">
    <mxGraphModel dx="880" dy="468" grid="1" gridSize="10" guides="1" tooltips="1" connect="1" arrows="1" fold="1" page="1" pageScale="1" pageWidth="1169" pageHeight="827" math="0" shadow="0">
      <root>
        <mxCell id="0" />
        <mxCell id="1" parent="0" />
        <mxCell id="mpq5AgpwV83IM184FDqD-17" value="" style="shape=image;verticalLabelPosition=bottom;verticalAlign=top;imageAspect=0;image=https://jgraph.github.io/drawio-libs/libs/arista/DCS-7304.svg;html=1;verticalLabelPosition=bottom;labelBackgroundColor=#ffffff;verticalAlign=top;outlineConnect=0;container=1;collapsible=0;childLayout=rack;rackUnitSize=16.7;allowGaps=1;marginLeft=8;marginRight=8;marginTop=27;marginBottom=22;textColor=#666666;aspect=fixed;" parent="1" vertex="1">
          <mxGeometry x="370" y="236" width="235.01" height="174" as="geometry" />
        </mxCell>
        <mxCell id="gjXWiW-3o07YTfw3R1sH-13" value="" style="fontColor=#0066CC;verticalAlign=top;verticalLabelPosition=bottom;labelPosition=center;align=center;html=1;outlineConnect=0;fillColor=#CCCCCC;strokeColor=#6881B3;gradientColor=none;gradientDirection=north;strokeWidth=2;shape=mxgraph.networks.modem;" vertex="1" parent="mpq5AgpwV83IM184FDqD-17">
          <mxGeometry x="8" y="27" width="219.01" height="16.7" as="geometry" />
        </mxCell>
        <mxCell id="gjXWiW-3o07YTfw3R1sH-15" value="" style="shape=mxgraph.rack.cisco.cisco_asr_1002_router;html=1;labelPosition=right;align=left;spacingLeft=15;dashed=0;shadow=0;fillColor=#ffffff;" vertex="1" parent="mpq5AgpwV83IM184FDqD-17">
          <mxGeometry x="8" y="43.7" width="219.01" height="33.4" as="geometry" />
        </mxCell>
        <mxCell id="gjXWiW-3o07YTfw3R1sH-16" value="" style="html=1;verticalLabelPosition=bottom;verticalAlign=top;outlineConnect=0;shadow=0;dashed=0;shape=mxgraph.rack.hpe_aruba.switches.j9776a_2530_24g_switch;" vertex="1" parent="mpq5AgpwV83IM184FDqD-17">
          <mxGeometry x="8" y="77.1" width="219.01" height="16.7" as="geometry" />
        </mxCell>
        <mxCell id="gjXWiW-3o07YTfw3R1sH-17" value="" style="strokeColor=#666666;html=1;labelPosition=right;align=left;spacingLeft=15;shadow=0;dashed=0;outlineConnect=0;shape=mxgraph.rack.general.cat5e_rack_mount_patch_panel_24_ports;" vertex="1" parent="mpq5AgpwV83IM184FDqD-17">
          <mxGeometry x="8" y="110.5" width="219.01" height="16.7" as="geometry" />
        </mxCell>
        <mxCell id="mpq5AgpwV83IM184FDqD-40" value="Arista rack equipment layout" style="text;html=1;resizable=1;points=[];autosize=0;align=left;verticalAlign=top;spacingTop=-4;fontSize=20;fontStyle=1" parent="1" vertex="1">
          <mxGeometry x="40" y="40" width="580" height="30" as="geometry" />
        </mxCell>
        <mxCell id="mpq5AgpwV83IM184FDqD-41" value="Location:" style="text;html=1;resizable=1;points=[];autosize=0;align=left;verticalAlign=middle;spacingTop=-4;fontSize=14;fontStyle=0" parent="1" vertex="1">
          <mxGeometry x="40" y="80" width="580" height="30" as="geometry" />
        </mxCell>
        <mxCell id="mpq5AgpwV83IM184FDqD-42" value="ClÃ­nica - TOPOLOGIA ESTRELA" style="text;html=1;resizable=1;points=[];autosize=0;align=left;verticalAlign=middle;spacingTop=-4;fontSize=14;fontStyle=0" parent="1" vertex="1">
          <mxGeometry x="40" y="110" width="580" height="30" as="geometry" />
        </mxCell>
        <mxCell id="gjXWiW-3o07YTfw3R1sH-20" style="edgeStyle=orthogonalEdgeStyle;rounded=0;orthogonalLoop=1;jettySize=auto;html=1;" edge="1" parent="1" source="gjXWiW-3o07YTfw3R1sH-1" target="gjXWiW-3o07YTfw3R1sH-17">
          <mxGeometry relative="1" as="geometry">
            <Array as="points">
              <mxPoint x="540" y="478" />
            </Array>
          </mxGeometry>
        </mxCell>
        <mxCell id="gjXWiW-3o07YTfw3R1sH-22" style="edgeStyle=orthogonalEdgeStyle;rounded=0;orthogonalLoop=1;jettySize=auto;html=1;" edge="1" parent="1" source="gjXWiW-3o07YTfw3R1sH-1" target="gjXWiW-3o07YTfw3R1sH-17">
          <mxGeometry relative="1" as="geometry">
            <Array as="points">
              <mxPoint x="520" y="528" />
            </Array>
          </mxGeometry>
        </mxCell>
        <mxCell id="gjXWiW-3o07YTfw3R1sH-1" value="" style="image;sketch=0;aspect=fixed;html=1;points=[];align=center;fontSize=12;image=img/lib/mscae/Managed_Desktop.svg;" vertex="1" parent="1">
          <mxGeometry x="770" y="510" width="50" height="36" as="geometry" />
        </mxCell>
        <mxCell id="gjXWiW-3o07YTfw3R1sH-30" style="edgeStyle=orthogonalEdgeStyle;rounded=0;orthogonalLoop=1;jettySize=auto;html=1;" edge="1" parent="1" source="gjXWiW-3o07YTfw3R1sH-2" target="gjXWiW-3o07YTfw3R1sH-17">
          <mxGeometry relative="1" as="geometry" />
        </mxCell>
        <mxCell id="gjXWiW-3o07YTfw3R1sH-2" value="" style="image;sketch=0;aspect=fixed;html=1;points=[];align=center;fontSize=12;image=img/lib/mscae/Managed_Desktop.svg;" vertex="1" parent="1">
          <mxGeometry x="230" y="200" width="50" height="36" as="geometry" />
        </mxCell>
        <mxCell id="gjXWiW-3o07YTfw3R1sH-23" style="edgeStyle=orthogonalEdgeStyle;rounded=0;orthogonalLoop=1;jettySize=auto;html=1;" edge="1" parent="1" source="gjXWiW-3o07YTfw3R1sH-3" target="gjXWiW-3o07YTfw3R1sH-17">
          <mxGeometry relative="1" as="geometry">
            <Array as="points">
              <mxPoint x="500" y="403" />
            </Array>
          </mxGeometry>
        </mxCell>
        <mxCell id="gjXWiW-3o07YTfw3R1sH-3" value="" style="verticalLabelPosition=bottom;sketch=0;aspect=fixed;html=1;verticalAlign=top;strokeColor=none;align=center;outlineConnect=0;shape=mxgraph.citrix.printer;" vertex="1" parent="1">
          <mxGeometry x="750" y="367.79" width="70" height="70" as="geometry" />
        </mxCell>
        <mxCell id="gjXWiW-3o07YTfw3R1sH-19" style="edgeStyle=orthogonalEdgeStyle;rounded=0;orthogonalLoop=1;jettySize=auto;html=1;" edge="1" parent="1" source="gjXWiW-3o07YTfw3R1sH-4" target="gjXWiW-3o07YTfw3R1sH-17">
          <mxGeometry relative="1" as="geometry">
            <Array as="points">
              <mxPoint x="560" y="204" />
            </Array>
          </mxGeometry>
        </mxCell>
        <mxCell id="gjXWiW-3o07YTfw3R1sH-4" value="" style="image;sketch=0;aspect=fixed;html=1;points=[];align=center;fontSize=12;image=img/lib/mscae/Managed_Desktop.svg;" vertex="1" parent="1">
          <mxGeometry x="730" y="186" width="50" height="36" as="geometry" />
        </mxCell>
        <mxCell id="gjXWiW-3o07YTfw3R1sH-29" style="edgeStyle=orthogonalEdgeStyle;rounded=0;orthogonalLoop=1;jettySize=auto;html=1;" edge="1" parent="1" source="gjXWiW-3o07YTfw3R1sH-5" target="gjXWiW-3o07YTfw3R1sH-17">
          <mxGeometry relative="1" as="geometry">
            <mxPoint x="440" y="370" as="targetPoint" />
            <Array as="points">
              <mxPoint x="441" y="252" />
            </Array>
          </mxGeometry>
        </mxCell>
        <mxCell id="gjXWiW-3o07YTfw3R1sH-5" value="" style="image;sketch=0;aspect=fixed;html=1;points=[];align=center;fontSize=12;image=img/lib/mscae/Managed_Desktop.svg;" vertex="1" parent="1">
          <mxGeometry x="140" y="234" width="50" height="36" as="geometry" />
        </mxCell>
        <mxCell id="gjXWiW-3o07YTfw3R1sH-25" style="edgeStyle=orthogonalEdgeStyle;rounded=0;orthogonalLoop=1;jettySize=auto;html=1;" edge="1" parent="1" source="gjXWiW-3o07YTfw3R1sH-6" target="gjXWiW-3o07YTfw3R1sH-17">
          <mxGeometry relative="1" as="geometry">
            <Array as="points">
              <mxPoint x="480" y="420" />
            </Array>
          </mxGeometry>
        </mxCell>
        <mxCell id="gjXWiW-3o07YTfw3R1sH-6" value="" style="image;sketch=0;aspect=fixed;html=1;points=[];align=center;fontSize=12;image=img/lib/mscae/Managed_Desktop.svg;" vertex="1" parent="1">
          <mxGeometry x="140" y="401.79" width="50" height="36" as="geometry" />
        </mxCell>
        <mxCell id="gjXWiW-3o07YTfw3R1sH-28" style="edgeStyle=orthogonalEdgeStyle;rounded=0;orthogonalLoop=1;jettySize=auto;html=1;" edge="1" parent="1" source="gjXWiW-3o07YTfw3R1sH-7" target="gjXWiW-3o07YTfw3R1sH-17">
          <mxGeometry relative="1" as="geometry" />
        </mxCell>
        <mxCell id="gjXWiW-3o07YTfw3R1sH-7" value="" style="image;sketch=0;aspect=fixed;html=1;points=[];align=center;fontSize=12;image=img/lib/mscae/Managed_Desktop.svg;" vertex="1" parent="1">
          <mxGeometry x="50" y="270" width="50" height="36" as="geometry" />
        </mxCell>
        <mxCell id="gjXWiW-3o07YTfw3R1sH-18" style="edgeStyle=orthogonalEdgeStyle;rounded=0;orthogonalLoop=1;jettySize=auto;html=1;" edge="1" parent="1" source="gjXWiW-3o07YTfw3R1sH-8" target="gjXWiW-3o07YTfw3R1sH-17">
          <mxGeometry relative="1" as="geometry">
            <Array as="points">
              <mxPoint x="580" y="168" />
            </Array>
          </mxGeometry>
        </mxCell>
        <mxCell id="gjXWiW-3o07YTfw3R1sH-8" value="" style="image;sketch=0;aspect=fixed;html=1;points=[];align=center;fontSize=12;image=img/lib/mscae/Managed_Desktop.svg;" vertex="1" parent="1">
          <mxGeometry x="730" y="150" width="50" height="36" as="geometry" />
        </mxCell>
        <mxCell id="gjXWiW-3o07YTfw3R1sH-31" style="edgeStyle=orthogonalEdgeStyle;rounded=0;orthogonalLoop=1;jettySize=auto;html=1;" edge="1" parent="1" source="gjXWiW-3o07YTfw3R1sH-9" target="gjXWiW-3o07YTfw3R1sH-17">
          <mxGeometry relative="1" as="geometry" />
        </mxCell>
        <mxCell id="gjXWiW-3o07YTfw3R1sH-9" value="" style="image;sketch=0;aspect=fixed;html=1;points=[];align=center;fontSize=12;image=img/lib/mscae/Managed_Desktop.svg;" vertex="1" parent="1">
          <mxGeometry x="380" y="140" width="50" height="36" as="geometry" />
        </mxCell>
        <mxCell id="gjXWiW-3o07YTfw3R1sH-10" value="" style="image;sketch=0;aspect=fixed;html=1;points=[];align=center;fontSize=12;image=img/lib/mscae/Managed_Desktop.svg;" vertex="1" parent="1">
          <mxGeometry x="750" y="460" width="50" height="36" as="geometry" />
        </mxCell>
        <mxCell id="gjXWiW-3o07YTfw3R1sH-11" value="" style="image;sketch=0;aspect=fixed;html=1;points=[];align=center;fontSize=12;image=img/lib/mscae/Managed_Desktop.svg;" vertex="1" parent="1">
          <mxGeometry x="60" y="350" width="50" height="36" as="geometry" />
        </mxCell>
        <mxCell id="gjXWiW-3o07YTfw3R1sH-24" style="edgeStyle=orthogonalEdgeStyle;rounded=0;orthogonalLoop=1;jettySize=auto;html=1;" edge="1" parent="1" source="gjXWiW-3o07YTfw3R1sH-12" target="gjXWiW-3o07YTfw3R1sH-17">
          <mxGeometry relative="1" as="geometry" />
        </mxCell>
        <mxCell id="gjXWiW-3o07YTfw3R1sH-12" value="" style="image;sketch=0;aspect=fixed;html=1;points=[];align=center;fontSize=12;image=img/lib/mscae/Managed_Desktop.svg;" vertex="1" parent="1">
          <mxGeometry x="240" y="430" width="50" height="36" as="geometry" />
        </mxCell>
        <mxCell id="gjXWiW-3o07YTfw3R1sH-27" style="edgeStyle=orthogonalEdgeStyle;rounded=0;orthogonalLoop=1;jettySize=auto;html=1;entryX=0.426;entryY=0.759;entryDx=0;entryDy=0;entryPerimeter=0;" edge="1" parent="1" source="gjXWiW-3o07YTfw3R1sH-11" target="mpq5AgpwV83IM184FDqD-17">
          <mxGeometry relative="1" as="geometry" />
        </mxCell>
      </root>
    </mxGraphModel>
  </diagram>
</mxfile>
